<svg xmlns="http://www.w3.org/2000/svg" version="1.0" viewBox="0 0 96 96"><path d="M10.9 11.8C9.1 13 9 14.8 9 40.4c0 24.2.2 27.5 1.7 28.7 1.2 1 5.1 1.4 14.7 1.5h13.1v2.9c0 2.7-.3 2.9-3.8 3-4.6.2-5.8 1.3-6 5.6l-.2 3.4h39l-.2-3.4c-.3-4.2-1.3-5.3-5.5-5.6-1.8-.2-3.7-.3-4.1-.4-.5 0-.7-1.3-.5-2.8l.3-2.7 13.1-.1c9.6 0 13.6-.4 14.8-1.4 1.4-1.2 1.6-4.5 1.6-28.6s-.2-27.4-1.6-28.6c-2.4-2-71.7-2.1-74.5-.1zm71.9 2.1c.9.1 1.2 6.1 1.2 26.5 0 20.2-.3 26.5-1.2 26.8-1.1.4-67.8.3-70-.1-1.2-.2-1-52.9.2-53.3.9-.3 66.6-.2 69.8.1zm-29 59.6.3 3h-5.8c-5.5 0-5.8-.1-6.1-2.7-.3-2.9.7-3.3 7.8-3.3 3.2 0 3.5.3 3.8 3zm10 6.8c2.7 1.8-.3 2.2-15 2.1-19.1-.2-18.3-.1-17-1.7 1.2-1.4 29.8-1.7 32-.4z"/><path d="M16.5 17.3c-1.2.7-1.5 4.4-1.5 21v20.3h33l33-.1V38.3c0-15.1-.3-20.4-1.2-21-1.7-1-61.5-1.1-63.3 0zm14.3 3.1c2.5 1.5 1 2.1-5.2 2.1-6.3 0-8.3-.6-7.3-2.2.6-1 10.8-.9 12.5.1zm-4.3 20.1v15h-8l-.3-15-.2-15.1 4.2.1 4.3.1v14.9zm50.3-14.6c1 .1 1.2 3.4 1 14.8l-.3 14.8h-47l-.3-14c-.1-7.6-.1-14.4.1-15 .3-.7 7.8-1 22.8-.9 12.3.1 23 .2 23.7.3z"/><path d="M21.3 29.7c-1.7.6-1.6 3 .1 3.6 1.8.7 3.6-1.1 2.9-2.9-.5-1.5-1-1.6-3-.7zm-.6 9.6c-.3.8-.1 2 .4 2.8.7 1.2 1.1 1.1 2.6-.4 1.6-1.5 1.6-1.9.3-2.7-2-1.3-2.7-1.2-3.3.3zm-.3 8.8c-.3.6 0 1.7.8 2.5 1.3 1.3 1.6 1.3 2.8-.1s1.1-1.8-.1-2.6c-1.9-1.2-2.6-1.1-3.5.2zM36 31.5c0 1.2 1.5 1.5 7.5 1.5s7.5-.3 7.5-1.5-1.5-1.5-7.5-1.5-7.5.3-7.5 1.5zm18 0c0 1.2 1.5 1.5 7.5 1.5s7.5-.3 7.5-1.5-1.5-1.5-7.5-1.5-7.5.3-7.5 1.5zm-18 6c0 1.1 1.2 1.5 4.5 1.5s4.5-.4 4.5-1.5-1.2-1.5-4.5-1.5-4.5.4-4.5 1.5zm12 0c0 1.1 1.2 1.5 4.5 1.5s4.5-.4 4.5-1.5-1.2-1.5-4.5-1.5-4.5.4-4.5 1.5zm-12 6c0 1.1 1.2 1.5 4.5 1.5s4.5-.4 4.5-1.5-1.2-1.5-4.5-1.5-4.5.4-4.5 1.5zm12 0c0 1.1 1.2 1.5 4.5 1.5s4.5-.4 4.5-1.5-1.2-1.5-4.5-1.5-4.5.4-4.5 1.5zm-12 6c0 1.2 1.5 1.5 7.5 1.5s7.5-.3 7.5-1.5-1.5-1.5-7.5-1.5-7.5.3-7.5 1.5zm18 0c0 1.2 1.5 1.5 7.5 1.5s7.5-.3 7.5-1.5-1.5-1.5-7.5-1.5-7.5.3-7.5 1.5zM57 63c0 2.2 8.3 2.2 8.8 0 .2-1.2-.8-1.5-4.3-1.6-3.5 0-4.5.4-4.5 1.6zm12 0c0 1.2 1.1 1.6 4.5 1.6 3.5.1 4.5-.3 4.5-1.5s-1.1-1.6-4.5-1.7c-3.5 0-4.5.4-4.5 1.6z"/></svg>