<svg width="38" height="38" viewBox="0 0 38 38" fill="none" xmlns="http://www.w3.org/2000/svg">
<path d="M31.1608 10.1998H26.6008V6.9998C26.6008 5.2238 25.248 3.7998 23.5608 3.7998H14.4408C12.7536 3.7998 11.4008 5.2238 11.4008 6.9998V10.1998H6.84078C5.15358 10.1998 3.80078 11.6238 3.80078 13.3998V30.9998C3.80078 32.7758 5.15358 34.1998 6.84078 34.1998H31.1608C32.848 34.1998 34.2008 32.7758 34.2008 30.9998V13.3998C34.2008 11.6238 32.848 10.1998 31.1608 10.1998ZM14.4408 6.9998H23.5608V10.1998H14.4408V6.9998ZM31.1608 30.9998H6.84078V27.7998H31.1608V30.9998ZM31.1608 22.9998H6.84078V13.3998H11.4008V16.5998H14.4408V13.3998H23.5608V16.5998H26.6008V13.3998H31.1608V22.9998Z" fill="white"/>
</svg>
