<svg width="40" height="38" viewBox="0 0 40 38" fill="none" xmlns="http://www.w3.org/2000/svg">
<path fill-rule="evenodd" clip-rule="evenodd" d="M33.334 4.75H6.66732C4.83398 4.75 3.33398 6.175 3.33398 7.91667V30.0833C3.33398 31.825 4.83398 33.25 6.66732 33.25H33.334C35.1673 33.25 36.6673 31.825 36.6673 30.0833V7.91667C36.6673 6.175 35.1673 4.75 33.334 4.75ZM33.334 30.0833H6.66732V7.91667H33.334V30.0833Z" fill="white"/>
<path fill-rule="evenodd" clip-rule="evenodd" d="M32.3507 16.499L29.984 14.2507L24.7007 19.2698L22.3507 17.0215L20.0007 19.254L24.7007 23.7507L32.3507 16.499ZM8.33398 11.084H16.6673V14.2507H8.33398V11.084ZM8.33398 17.4173H16.6673V20.584H8.33398V17.4173ZM8.33398 23.7507H16.6673V26.9173H8.33398V23.7507Z" fill="white"/>
</svg>
