<svg width="38" height="38" viewBox="0 0 38 38" fill="none" xmlns="http://www.w3.org/2000/svg">
<path d="M19 2.375C9.81914 2.375 2.375 9.81914 2.375 19C2.375 28.1809 9.81914 35.625 19 35.625C28.1809 35.625 35.625 28.1809 35.625 19C35.625 9.81914 28.1809 2.375 19 2.375ZM19 32.8047C11.3777 32.8047 5.19531 26.6223 5.19531 19C5.19531 11.3777 11.3777 5.19531 19 5.19531C26.6223 5.19531 32.8047 11.3777 32.8047 19C32.8047 26.6223 26.6223 32.8047 19 32.8047Z" fill="#00D1B4"/>
<path d="M25.483 23.698L20.1912 19.8721V10.6875C20.1912 10.5242 20.0576 10.3906 19.8943 10.3906H18.1094C17.9461 10.3906 17.8125 10.5242 17.8125 10.6875V20.9074C17.8125 21.0039 17.857 21.093 17.935 21.1486L24.0728 25.624C24.2064 25.7205 24.392 25.6908 24.4885 25.5609L25.5498 24.1137C25.6463 23.9764 25.6166 23.7908 25.483 23.698Z" fill="#00D1B4"/>
</svg>
