<svg width="38" height="38" viewBox="0 0 38 38" fill="none" xmlns="http://www.w3.org/2000/svg">
<path d="M29.45 10.4815C27.17 10.4815 25.0167 11.3912 23.4808 12.967L12.35 23.1041C11.3367 24.1438 9.99083 24.7124 8.55 24.7124C5.58917 24.7124 3.1825 22.2593 3.1825 19.2215C3.1825 16.1836 5.58917 13.7305 8.55 13.7305C9.99083 13.7305 11.3367 14.2991 12.4133 15.4038L14.2025 17.0283L16.5933 14.8515L14.5983 13.0482C13.8054 12.2316 12.8627 11.5844 11.8245 11.1438C10.7864 10.7032 9.67344 10.4781 8.55 10.4815C3.83167 10.4815 0 14.4128 0 19.2215C0 24.0301 3.83167 27.9614 8.55 27.9614C10.83 27.9614 12.9833 27.0517 14.5192 25.4759L25.65 15.3388C26.6633 14.2991 28.0092 13.7305 29.45 13.7305C32.4108 13.7305 34.8175 16.1836 34.8175 19.2215C34.8175 22.2593 32.4108 24.7124 29.45 24.7124C28.025 24.7124 26.6633 24.1438 25.5867 23.0391L23.7817 21.3983L21.3908 23.5752L23.4017 25.3947C24.1967 26.2072 25.1402 26.8507 26.1781 27.2884C27.216 27.7261 28.3279 27.9493 29.45 27.9452C34.1683 27.9452 38 24.0301 38 19.2052C38 14.3804 34.1683 10.4815 29.45 10.4815Z" fill="white"/>
</svg>
