<svg width="38" height="38" viewBox="0 0 38 38" fill="none" xmlns="http://www.w3.org/2000/svg">
<path d="M14.2494 33.2503C14.2494 34.1212 14.9619 34.8337 15.8327 34.8337H22.166C23.0369 34.8337 23.7494 34.1212 23.7494 33.2503V31.667H14.2494V33.2503ZM18.9994 3.16699C12.8877 3.16699 7.91602 8.13866 7.91602 14.2503C7.91602 18.0187 9.80018 21.3278 12.666 23.3387V26.917C12.666 27.7878 13.3785 28.5003 14.2494 28.5003H23.7494C24.6202 28.5003 25.3327 27.7878 25.3327 26.917V23.3387C28.1985 21.3278 30.0827 18.0187 30.0827 14.2503C30.0827 8.13866 25.111 3.16699 18.9994 3.16699Z" fill="white"/>
</svg>
