<svg width="38" height="38" viewBox="0 0 38 38" fill="none" xmlns="http://www.w3.org/2000/svg">
<g clip-path="url(#clip0_238_146)">
<path d="M31.9306 32.1063V21.4627C31.9306 19.6448 31.2855 18.0908 29.9954 16.8007C28.7052 15.5106 27.1512 14.8655 25.3333 14.8655C24.4537 14.8655 23.5741 15.1148 22.6944 15.6132C21.8148 16.1117 21.1404 16.7421 20.6713 17.5044V15.2174H15.0417V32.1063H20.6713V22.1665C20.6713 21.4041 20.9352 20.7444 21.463 20.1873C21.9907 19.6302 22.6505 19.3516 23.4421 19.3516C24.2338 19.3516 24.9082 19.6302 25.4653 20.1873C26.0224 20.7444 26.3009 21.4041 26.3009 22.1665V32.1063H31.9306ZM8.44444 12.0507C9.38272 12.0507 10.189 11.7282 10.8634 11.0831C11.5378 10.4381 11.875 9.64639 11.875 8.70812C11.875 7.76985 11.5378 6.96352 10.8634 6.28914C10.189 5.61475 9.38272 5.27756 8.44444 5.27756C7.50617 5.27756 6.69985 5.61475 6.02546 6.28914C5.35108 6.96352 5.01389 7.76985 5.01389 8.70812C5.01389 9.64639 5.35108 10.4381 6.02546 11.0831C6.69985 11.7282 7.50617 12.0507 8.44444 12.0507ZM11.2593 32.1063V15.2174H5.62963V32.1063H11.2593ZM33.7778 0.263672C34.8333 0.263672 35.7276 0.630184 36.4606 1.36321C37.1937 2.09623 37.5602 2.9612 37.5602 3.95812V34.0415C37.5602 35.0384 37.1937 35.9033 36.4606 36.6364C35.7276 37.3694 34.8333 37.7359 33.7778 37.7359H3.78241C2.72685 37.7359 1.83256 37.3694 1.09954 36.6364C0.366512 35.9033 0 35.0384 0 34.0415V3.95812C0 2.9612 0.366512 2.09623 1.09954 1.36321C1.83256 0.630184 2.72685 0.263672 3.78241 0.263672H33.7778Z" fill="white"/>
</g>
<defs>
<clipPath id="clip0_238_146">
<rect width="38" height="38" fill="white"/>
</clipPath>
</defs>
</svg>
