<svg width="38" height="38" viewBox="0 0 38 38" fill="none" xmlns="http://www.w3.org/2000/svg">
<path d="M26.2687 19.0958L24.568 17.404L16.7383 25.1925L13.3369 21.809L11.6361 23.5008L16.7383 28.576L26.2687 19.0958ZM30.2317 6.23204H28.6272V3.04004H25.4183V6.23204H12.5828V3.04004H9.37388V6.23204H7.76944C5.9885 6.23204 4.57659 7.66844 4.57659 9.42404L4.56055 31.768C4.56055 32.6146 4.89863 33.4265 5.50041 34.0251C6.10219 34.6237 6.91839 34.96 7.76944 34.96H30.2317C31.9965 34.96 33.4405 33.5236 33.4405 31.768V9.42404C33.4405 7.66844 31.9965 6.23204 30.2317 6.23204ZM30.2317 31.768H7.76944V14.212H30.2317V31.768Z" fill="white"/>
</svg>
