<svg width="38" height="38" viewBox="0 0 38 38" fill="none" xmlns="http://www.w3.org/2000/svg">
<path d="M22.2623 15.7387L19.0007 14.2503L22.2623 12.762L23.7507 9.50033L25.239 12.762L28.5007 14.2503L25.239 15.7387L23.7507 19.0003L22.2623 15.7387ZM6.33398 22.167L7.82232 18.9053L11.084 17.417L7.82232 15.9287L6.33398 12.667L4.84565 15.9287L1.58398 17.417L4.84565 18.9053L6.33398 22.167ZM13.459 14.2503L15.1848 10.4345L19.0007 8.70866L15.1848 6.98283L13.459 3.16699L11.7332 6.98283L7.91732 8.70866L11.7332 10.4345L13.459 14.2503ZM7.12565 32.4587L16.6257 22.9428L22.959 29.2762L36.4173 14.1395L34.1848 11.907L22.959 24.5262L16.6257 18.1928L4.75065 30.0837L7.12565 32.4587Z" fill="white"/>
</svg>
